<svg xmlns="http://www.w3.org/2000/svg" viewBox="0 0 360 1000" width="360" height="1000">
  <defs>
    <linearGradient id="g" x1="0" y1="0" x2="1" y2="0">
      <stop offset="0"    stop-color="#ffffff" stop-opacity=".08"/>
      <stop offset="0.05" stop-color="#ffffff" stop-opacity=".52"/>
      <stop offset="0.16" stop-color="#F0D2D2"  stop-opacity=".14"/>
      <stop offset="0.50" stop-color="#9B5B5B"  stop-opacity=".05"/>
      <stop offset="0.84" stop-color="#F0D2D2"  stop-opacity=".17"/>
      <stop offset="0.95" stop-color="#ffffff" stop-opacity=".58"/>
      <stop offset="1"    stop-color="#ffffff" stop-opacity=".10"/>
    </linearGradient>
    <linearGradient id="j" x1="0" y1="0" x2="0" y2="1">
      <stop offset="0"    stop-color="#D9536A"/>
      <stop offset="0.42" stop-color="#B32F45"/>
      <stop offset="1"    stop-color="#7A1526"/>
    </linearGradient>
    <linearGradient id="m" x1="0" y1="0" x2="1" y2="0">
      <stop offset="0"    stop-color="#8A6A24"/>
      <stop offset="0.14" stop-color="#E3C87C"/>
      <stop offset="0.32" stop-color="#FBF4D6"/>
      <stop offset="0.54" stop-color="#E3C87C"/>
      <stop offset="0.80" stop-color="#8A6A24"/>
      <stop offset="1"    stop-color="#6E5219"/>
    </linearGradient>
    <filter id="soft" x="-40%" y="-20%" width="180%" height="140%">
      <feGaussianBlur stdDeviation="13"/>
    </filter>
    <clipPath id="c"><path d="M104 330 L256 330 C284 330 300 372 302 470 L316 906 Q318 968 258 968 L102 968 Q42 968 44 906 L58 470 C60 372 76 330 104 330 Z"/></clipPath>
  </defs>
  <rect x="118" y="12" width="124" height="188" rx="10" fill="url(#m)"/>
  <rect x="132" y="26" width="96" height="12" rx="6" fill="#fff" opacity=".34"/>
  <rect x="124" y="200" width="112" height="26" rx="5" fill="url(#m)"/>
  <rect x="142" y="226" width="76" height="108" fill="url(#g)" opacity=".9"/>
  <path d="M104 330 L256 330 C284 330 300 372 302 470 L316 906 Q318 968 258 968 L102 968 Q42 968 44 906 L58 470 C60 372 76 330 104 330 Z" fill="url(#g)"/>
  <g clip-path="url(#c)">
    <rect x="0" y="540" width="360" height="1000" fill="url(#j)"/>
    <ellipse cx="180" cy="540" rx="128" ry="18" fill="#E97C90" opacity=".72"/>
    <rect x="0" y="540" width="360" height="24" fill="#fff" opacity=".16"/>
  </g>
  <path d="M104 330 L256 330 C284 330 300 372 302 470 L316 906 Q318 968 258 968 L102 968 Q42 968 44 906 L58 470 C60 372 76 330 104 330 Z" fill="none" stroke="#ffffff" stroke-opacity=".58" stroke-width="4"/>
  <g clip-path="url(#c)">
    <path d="M104 330 L256 330 C284 330 300 372 302 470 L316 906 Q318 968 258 968 L102 968 Q42 968 44 906 L58 470 C60 372 76 330 104 330 Z" fill="none" stroke="#3B3B42" stroke-opacity=".20" stroke-width="30"/>
  </g>
  <g filter="url(#soft)">
    <rect x="76" y="420" width="22" height="500" rx="11" fill="#fff" opacity=".55"/>
    <rect x="272" y="460" width="14" height="420" rx="7" fill="#fff" opacity=".32"/>
    <ellipse cx="140" cy="640" rx="24" ry="150" fill="#fff" opacity=".12"/>
  </g></svg>
